<svg fill="none" height="28" viewBox="0 0 28 28" width="28" xmlns="http://www.w3.org/2000/svg" xmlns:xlink="http://www.w3.org/1999/xlink"><linearGradient id="a" gradientUnits="userSpaceOnUse" x1="6.40844" x2="21.3942" y1="22.5565" y2="5.66174"><stop offset=".08" stop-color="#9945ff"/><stop offset=".3" stop-color="#8752f3"/><stop offset=".5" stop-color="#5497d5"/><stop offset=".6" stop-color="#43b4ca"/><stop offset=".72" stop-color="#28e0b9"/><stop offset=".97" stop-color="#19fb9b"/></linearGradient><clipPath id="b"><path d="m0 0h28v28h-28z"/></clipPath><g clip-path="url(#b)"><path d="m14 28c7.732 0 14-6.268 14-14 0-7.73199-6.268-14-14-14-7.73199 0-14 6.26801-14 14 0 7.732 6.26801 14 14 14z" fill="#f3f3f3"/><path d="m23.0343 18.7113-3.0148 3.2327c-.0652.0701-.1442.1262-.232.1645-.0879.0384-.1826.0582-.2784.0583h-14.29163c-.06816 0-.13483-.0199-.19186-.0573-.05701-.0373-.10191-.0905-.12917-.1529-.02727-.0625-.03571-.1316-.02433-.1988.01139-.0672.04213-.1296.08845-.1797l3.01145-3.2326c.06521-.0702.14417-.1262.232-.1646.0878-.0383.18259-.0582.27841-.0582h14.29158c.0687-.0015.1365.0175.1945.0545.058.0368.104.0902.1317.153.0279.063.0364.1328.0246.2006-.0117.0678-.0431.1307-.0905.1805zm-3.0148-6.5112c-.0654-.0699-.1445-.1256-.2323-.164-.0877-.0383-.1824-.0584-.2781-.0588h-14.29163c-.06816 0-.13483.0199-.19186.0573-.05701.0373-.10191.0905-.12917.1529-.02727.0625-.03571.1316-.02433.1988.01139.0672.04213.1296.08845.1797l3.01145 3.2343c.06545.0699.14448.1257.23223.1641.08776.0382.18243.0583.27818.0588h14.29158c.068-.0004.1344-.0206.1912-.058.0569-.0375.1014-.0907.1285-.1531s.0355-.1314.0238-.1984c-.0113-.0671-.042-.1293-.0883-.1792zm-14.80203-2.32235h14.29163c.0958-.00008.1905-.01994.2784-.05829.0878-.03833.1668-.09437.232-.16459l3.0148-3.23261c.0474-.04994.0788-.11276.0905-.18056.0118-.06779.0033-.13755-.0246-.20048-.0277-.06291-.0737-.11621-.1317-.15316-.058-.03694-.1258-.0559-.1945-.05449h-14.29158c-.09582.0001-.19061.01995-.27841.0583-.08783.03835-.16679.09437-.232.16458l-3.01145 3.23262c-.04632.05001-.07706.11245-.08845.17965-.01138.06721-.00294.13626.02433.19874.02726.06247.07216.11564.12917.15298.05703.03737.1237.05727.19186.05731z" fill="url(#a)"/></g></svg>